<svg width="120" height="122" viewBox="0 0 120 122" fill="none" xmlns="http://www.w3.org/2000/svg">
<g clip-path="url(#clip0)">
<path d="M60.0298 27.9184C63.1364 27.9184 65.6548 25.3912 65.6548 22.2737C65.6548 19.1563 63.1364 16.629 60.0298 16.629C56.9232 16.629 54.4048 19.1563 54.4048 22.2737C54.4048 25.3912 56.9232 27.9184 60.0298 27.9184Z" fill="#FCA138"/>
<path d="M105.06 60.1403C106.354 60.1403 107.403 59.0874 107.403 57.7884V50.7325H112.969C114.263 50.7325 115.312 49.6796 115.312 48.3806V37.0912C115.312 35.7922 114.263 34.7393 112.969 34.7393H107.631L61.3694 1.3145C60.5515 0.723454 59.4487 0.723454 58.6305 1.3145L12.3691 34.7393H7.03125C5.73703 34.7393 4.6875 35.7922 4.6875 37.0912V48.3806C4.6875 49.6796 5.73703 50.7325 7.03125 50.7325H12.6562V57.7884C12.6562 59.0874 13.7058 60.1403 15 60.1403H15.4688V95.89H15C13.7058 95.89 12.6562 96.943 12.6562 98.242V105.298H7.03125C5.73703 105.298 4.6875 106.351 4.6875 107.65V118.939C4.6875 120.238 5.73703 121.291 7.03125 121.291H112.969C114.263 121.291 115.312 120.238 115.312 118.939V107.65C115.312 106.351 114.263 105.298 112.969 105.298H107.403V98.242C107.403 96.943 106.354 95.89 105.06 95.89H104.591V60.1403H105.06ZM102.716 55.4364H90.5283V50.7325H102.716V55.4364ZM60 6.12118L99.6087 34.7393H20.3913L60 6.12118ZM9.375 39.4432H106.867C106.869 39.4432 106.871 39.4434 106.873 39.4434C106.874 39.4434 106.875 39.4432 106.877 39.4432H110.625V46.0286H9.375V39.4432ZM29.5312 50.7325V55.4364H17.3438V50.7325H29.5312ZM26.7188 60.1403V95.302H20.1562V60.1403H26.7188ZM17.3438 100.594H29.5312V105.298H17.3438V100.594ZM110.625 116.587H9.375V110.002H110.625V116.587ZM90.5283 105.298V100.594H102.716V105.298H90.5283ZM88.1845 95.89C86.8903 95.89 85.8408 96.943 85.8408 98.242V105.298H34.2188V98.242C34.2188 96.943 33.1692 95.89 31.875 95.89H31.4062V60.1403H31.875C33.1692 60.1403 34.2188 59.0874 34.2188 57.7884V50.7325H85.8408V57.7884C85.8408 59.0874 86.8903 60.1403 88.1845 60.1403H88.6533V95.89H88.1845ZM99.9033 95.302H93.3408V60.1403H99.9033V95.302Z" fill="#FCA138"/>
<path d="M64.0136 75.3229C63.4645 75.1282 62.9041 74.9255 62.3437 74.7154V64.6023C63.8022 65.052 64.7702 65.7449 64.8117 65.7752C65.8434 66.5497 67.3052 66.3437 68.084 65.3123C68.8657 64.277 68.6629 62.8019 67.6312 62.0175C67.4986 61.9168 65.4119 60.3636 62.3435 59.7566V57.5659C62.3435 56.267 61.2939 55.214 59.9997 55.214C58.7055 55.214 57.656 56.267 57.656 57.5659V59.738C57.2922 59.8102 56.9236 59.9014 56.5504 60.0139C53.3386 60.9822 50.9381 63.7375 50.2856 67.2045C49.6893 70.373 50.7028 73.4303 52.9303 75.1837C54.1216 76.1212 55.6071 76.9775 57.656 77.8847V90.8999C55.8539 90.7776 54.75 90.3592 52.8269 89.0967C51.7427 88.3855 50.2907 88.6907 49.5825 89.7776C48.8739 90.8646 49.1775 92.3222 50.2607 93.0334C53.1436 94.9258 55.1034 95.4749 57.6562 95.6097V97.8765C57.6562 99.1755 58.7057 100.228 60 100.228C61.2942 100.228 62.3437 99.1755 62.3437 97.8765V95.3606C67.1828 94.267 70.0139 90.2014 70.6511 86.3969C71.4886 81.3971 68.8832 77.0502 64.0136 75.3229ZM55.8236 71.4822C54.9916 70.8274 54.626 69.491 54.892 68.0773C55.136 66.7804 55.991 65.2222 57.6562 64.6035V72.6572C56.966 72.2814 56.3418 71.8903 55.8236 71.4822ZM66.0285 85.617C65.7128 87.5014 64.4618 89.4967 62.3437 90.4192V79.7192C62.3803 79.7322 62.3069 79.706 62.3437 79.7192C66.3365 81.1356 66.1987 84.6007 66.0285 85.617Z" fill="#FCA138"/>
</g>
<defs>
<clipPath id="clip0">
<rect width="120" height="120.42" fill="white" transform="translate(0 0.870972)"/>
</clipPath>
</defs>
</svg>
