<svg width="120" height="122" viewBox="0 0 120 122" fill="none" xmlns="http://www.w3.org/2000/svg">
<path d="M117.656 116.586H116.719V92.5912C116.719 91.2922 115.669 90.2388 114.375 90.2388H95.625C94.3308 90.2388 93.2812 91.2922 93.2812 92.5912V116.586H86.7188V74.6873C86.7188 73.3883 85.6692 72.3349 84.375 72.3349H65.625C64.3308 72.3349 63.2812 73.3883 63.2812 74.6873V116.586H56.7188V61.0686C56.7188 59.7696 55.6692 58.7162 54.375 58.7162H35.625C34.3308 58.7162 33.2812 59.7696 33.2812 61.0686V116.586H26.7188V48.3655C26.7188 47.0665 25.6692 46.0131 24.375 46.0131H5.625C4.33078 46.0131 3.28125 47.0665 3.28125 48.3655V116.586H2.34375C1.04953 116.586 0 117.639 0 118.938C0 120.237 1.04953 121.291 2.34375 121.291H117.656C118.95 121.291 120 120.237 120 118.938C120 117.639 118.95 116.586 117.656 116.586ZM7.96875 116.586V50.7179H22.0312V116.586H7.96875ZM37.9688 116.586V63.4211H52.0312V116.586H37.9688ZM67.9688 116.586V77.0398H82.0312V116.586H67.9688ZM97.9688 116.586V94.9436H112.031V116.586H97.9688Z" fill="#EF434D"/>
<path d="M98.0933 77.2263C100.608 78.8775 102.343 79.3967 104.532 79.5402V81.2995C104.532 82.5986 105.582 83.652 106.876 83.652C108.17 83.652 109.22 82.5986 109.22 81.2995V79.268C113.35 78.2045 115.998 74.6582 116.584 71.161C117.349 66.5919 114.97 62.6203 110.524 61.0428C110.095 60.8906 109.658 60.7323 109.22 60.5695V52.152C110.269 52.5277 110.95 53.0125 110.986 53.0389C112.017 53.8121 113.479 53.606 114.257 52.5747C115.039 51.5392 114.836 50.0635 113.804 49.279C113.687 49.1898 111.887 47.8489 109.22 47.2695V45.5424C109.22 44.2434 108.17 43.1899 106.876 43.1899C105.582 43.1899 104.532 44.2434 104.532 45.5424V47.2556C104.27 47.313 104.007 47.3782 103.741 47.4587C100.797 48.3462 98.5972 50.8692 98 54.0426C97.453 56.951 98.3886 59.7621 100.443 61.3792C101.485 62.1999 102.775 62.9499 104.532 63.7384V74.8207C103.147 74.688 102.207 74.3051 100.66 73.2888C99.5755 72.5774 98.1235 72.8826 97.4152 73.9696C96.7065 75.0571 97.0102 76.5149 98.0933 77.2263ZM111.961 70.3812C111.713 71.8604 110.784 73.4213 109.22 74.2611V65.5776C112.295 66.8175 112.1 69.5539 111.961 70.3812ZM103.335 57.6776C102.675 57.1573 102.388 56.0735 102.606 54.9161C102.791 53.9363 103.391 52.777 104.532 52.1908V58.4753C104.089 58.2173 103.684 57.9517 103.335 57.6776Z" fill="#EF434D"/>
<path d="M42.4385 48.5628C43.354 49.4812 44.8375 49.4812 45.7533 48.5628L53.5153 40.772L70.1435 57.4618L68.2073 59.4052C67.5372 60.078 67.3366 61.0898 67.6992 61.9689C68.062 62.8477 68.9165 63.421 69.8646 63.421H84.4333C85.7275 63.421 86.7771 62.3676 86.7771 61.0686V46.4459C86.7771 45.4943 86.2059 44.6366 85.3303 44.2724C84.4544 43.9088 83.4461 44.1099 82.7761 44.7825L80.8638 46.7018L55.1725 20.9154C54.7329 20.4743 54.1368 20.2263 53.5153 20.2263C52.8937 20.2263 52.2977 20.4743 51.858 20.9154L44.096 28.7064L17.05 1.56C16.6104 1.11892 16.0143 0.870972 15.3928 0.870972C14.7712 0.870972 14.1752 1.11892 13.7355 1.56L6.32974 8.99346C5.4145 9.91208 5.4145 11.4016 6.32974 12.3205L42.4385 48.5628ZM15.3928 6.55045L42.4387 33.6966C42.8784 34.1377 43.4744 34.3856 44.096 34.3856C44.7175 34.3856 45.3138 34.1377 45.7533 33.6966L53.5153 25.9056L79.2065 51.692C79.9889 52.477 81.1868 52.5916 82.0898 52.0341V58.7159H75.4418C76.0134 57.8069 75.9049 56.5903 75.1155 55.7982L55.1725 35.7813C54.2571 34.8629 52.7735 34.8629 51.8578 35.7813L44.0957 43.5724L11.3015 10.6569L15.3928 6.55045Z" fill="#EF434D"/>
</svg>
