<svg width="120" height="120" viewBox="0 0 120 120" fill="none" xmlns="http://www.w3.org/2000/svg">
<path d="M117.656 115.312H116.719V47.3438C116.719 46.0493 115.669 45 114.375 45H95.625C94.3308 45 93.2812 46.0493 93.2812 47.3438V115.312H86.7188V60C86.7188 58.7055 85.6692 57.6562 84.375 57.6562H65.625C64.3308 57.6562 63.2812 58.7055 63.2812 60V115.312H56.7188V73.5684C56.7188 72.274 55.6692 71.2247 54.375 71.2247H35.625C34.3308 71.2247 33.2812 72.274 33.2812 73.5684V115.312H26.7188V91.4062C26.7188 90.1118 25.6692 89.0625 24.375 89.0625H5.625C4.33078 89.0625 3.28125 90.1118 3.28125 91.4062V115.312H2.34375C1.04953 115.312 0 116.362 0 117.656C0 118.951 1.04953 120 2.34375 120H117.656C118.95 120 120 118.951 120 117.656C120 116.362 118.95 115.312 117.656 115.312ZM7.96875 115.312V93.75H22.0312V115.312H7.96875ZM37.9688 115.312V75.9122H52.0312V115.312H37.9688ZM67.9688 115.312V62.3438H82.0312V115.312H67.9688ZM97.9688 115.312V49.6875H112.031V115.312H97.9688Z" fill="#26BF87"/>
<path d="M96.2175 33.9105C98.7326 35.5556 100.468 36.0729 102.656 36.2159V37.9688C102.656 39.2632 103.706 40.3125 105 40.3125C106.294 40.3125 107.344 39.2632 107.344 37.9688V35.9447C111.474 34.8851 114.122 31.3521 114.708 27.8679C115.473 23.3156 113.094 19.3587 108.648 17.787C108.219 17.6351 107.782 17.4776 107.344 17.3154V8.92875C108.393 9.30305 109.074 9.78633 109.111 9.81234C110.142 10.5827 111.603 10.3777 112.381 9.34992C113.163 8.3182 112.96 6.8482 111.928 6.06656C111.811 5.97773 110.011 4.6418 107.344 4.06453V2.34375C107.344 1.0493 106.294 0 105 0C103.706 0 102.656 1.0493 102.656 2.34375V4.0507C102.395 4.10789 102.131 4.17281 101.865 4.25297C98.9208 5.1375 96.7214 7.65117 96.1243 10.8129C95.5772 13.7107 96.5128 16.5115 98.5669 18.1223C99.6094 18.9401 100.899 19.6873 102.656 20.4727V31.5141C101.27 31.3821 100.332 31.0005 98.7839 29.9876C97.7004 29.2788 96.2478 29.5828 95.5395 30.6661C94.8307 31.7491 95.1345 33.2018 96.2175 33.9105ZM110.085 27.0907C109.837 28.5645 108.908 30.1195 107.344 30.9563V22.3048C110.42 23.5402 110.224 26.2664 110.085 27.0907ZM101.46 14.434C100.799 13.9158 100.513 12.8358 100.731 11.6827C100.915 10.7065 101.516 9.55125 102.657 8.96719V15.2287C102.213 14.9716 101.808 14.707 101.46 14.434Z" fill="#26BF87"/>
<path d="M15.3129 71.0074C15.7526 71.4469 16.3486 71.6939 16.9702 71.6939C17.5917 71.6939 18.1878 71.4469 18.6274 71.0074L45.6734 43.9615L53.4354 51.7238C53.8751 52.1632 54.4711 52.4102 55.0927 52.4102C55.7142 52.4102 56.3102 52.1632 56.7499 51.7238L82.4409 26.0325L84.3534 27.945C85.0238 28.6151 86.0318 28.8159 86.9077 28.4529C87.7833 28.0901 88.3545 27.2355 88.3545 26.2875V11.7188C88.3545 10.4243 87.3049 9.375 86.0107 9.375H71.4417C70.4937 9.375 69.6392 9.94617 69.2763 10.8218C68.9138 11.6977 69.1144 12.7057 69.7845 13.376L71.7206 15.312L55.0927 31.9404L47.3306 24.1781C46.4152 23.2629 44.9316 23.2629 44.0159 24.1781L7.90713 60.2871C6.99189 61.2023 6.99189 62.6864 7.90713 63.6016L15.3129 71.0074ZM45.6734 29.1504L53.4354 36.9127C53.8751 37.3521 54.4711 37.5991 55.0927 37.5991C55.7142 37.5991 56.3102 37.3521 56.7499 36.9127L76.6927 16.9697C77.1321 16.5302 77.3792 15.934 77.3792 15.3124C77.3792 14.8666 77.2521 14.434 77.0182 14.0627H83.6672V20.7202C82.7639 20.1649 81.5663 20.2786 80.7837 21.0609L55.0929 46.752L47.3309 38.9897C46.4154 38.0747 44.9318 38.0747 44.0161 38.9897L16.9702 66.0356L12.8792 61.9444L45.6734 29.1504Z" fill="#26BF87"/>
</svg>
