<svg width="120" height="122" viewBox="0 0 120 122" fill="none" xmlns="http://www.w3.org/2000/svg">
<g clip-path="url(#clip0)">
<path d="M117.656 15.955H84.8438V3.25442C84.8438 1.95544 83.7942 0.902466 82.5 0.902466H37.5C36.2058 0.902466 35.1562 1.95544 35.1562 3.25442V15.955H2.34375C1.04953 15.955 0 17.0079 0 18.3069V42.2969C0 46.652 1.79906 50.5915 4.6875 53.4131V96.8622C4.6875 103.347 9.94453 108.622 16.4062 108.622H36.2709C41.4112 116.277 50.1293 121.323 60 121.323C69.8707 121.323 78.5887 116.277 83.7291 108.622H103.594C110.055 108.622 115.312 103.347 115.312 96.8622V53.4131C118.201 50.5913 120 46.652 120 42.2969V18.3069C120 17.0079 118.95 15.955 117.656 15.955ZM39.8438 5.60637H80.1562V15.955H39.8438V5.60637ZM60 116.619C46.818 116.619 36.0938 105.857 36.0938 92.6287C36.0938 79.4006 46.818 68.6387 60 68.6387C73.182 68.6387 83.9062 79.4006 83.9062 92.6287C83.9062 105.857 73.182 116.619 60 116.619ZM110.625 96.8622C110.625 100.753 107.471 103.918 103.594 103.918H86.2859C87.7702 100.451 88.5938 96.6348 88.5938 92.6287C88.5938 76.8068 75.7666 63.9348 60 63.9348C44.2334 63.9348 31.4062 76.8068 31.4062 92.6287C31.4062 96.6348 32.2298 100.451 33.7141 103.918H16.4062C12.5292 103.918 9.375 100.753 9.375 96.8622V56.5624C11.0876 57.3019 12.9588 57.737 14.922 57.8059C14.922 64.2902 20.179 69.9323 26.6407 69.9323C33.1024 69.9323 38.3595 64.2902 38.3595 57.8059H81.6405C81.6405 64.2902 86.8976 69.9323 93.3593 69.9323C99.821 69.9323 105.078 64.2902 105.078 57.8059C107.041 57.737 108.912 57.3019 110.625 56.5624V96.8622ZM19.6095 58.1725V47.9415H33.672V58.1725C33.672 62.0631 30.5177 65.2284 26.6407 65.2284C22.7637 65.2284 19.6095 62.0631 19.6095 58.1725ZM86.328 58.1725V47.9415H100.391V58.1725C100.391 62.0631 97.2363 65.2284 93.3593 65.2284C89.4823 65.2284 86.328 62.0631 86.328 58.1725ZM115.312 42.2969C115.312 48.0784 110.77 52.8153 105.078 53.102V45.5896C105.078 44.2906 104.029 43.2376 102.734 43.2376H83.9843C82.6901 43.2376 81.6405 44.2906 81.6405 45.5896V53.1158H38.3595V45.5896C38.3595 44.2906 37.3099 43.2376 36.0157 43.2376H17.2657C15.9715 43.2376 14.922 44.2906 14.922 45.5896V53.102C9.23016 52.8153 4.6875 48.0784 4.6875 42.2969V20.6589H115.312V42.2969Z" fill="#8E76EC"/>
<path d="M28.2984 58.2478C28.7341 57.8103 28.9851 57.2035 28.9851 56.585C28.9851 55.9664 28.7343 55.3596 28.2984 54.9221C27.8601 54.4847 27.2578 54.233 26.6414 54.233C26.0226 54.233 25.4203 54.4847 24.9843 54.9221C24.546 55.3596 24.2976 55.9664 24.2976 56.585C24.2976 57.2035 24.546 57.8103 24.9843 58.2478C25.4203 58.6853 26.0228 58.9369 26.6414 58.9369C27.2578 58.9369 27.8601 58.6853 28.2984 58.2478Z" fill="#8E76EC"/>
<path d="M95.7024 56.585C95.7024 55.9664 95.4537 55.3596 95.0154 54.9221C94.5797 54.4847 93.9772 54.233 93.3586 54.233C92.7422 54.233 92.1376 54.4847 91.7016 54.9221C91.2657 55.3596 91.0149 55.9664 91.0149 56.585C91.0149 57.2035 91.2654 57.8103 91.7016 58.2478C92.1378 58.6853 92.7422 58.9369 93.3586 58.9369C93.975 58.9369 94.5797 58.6853 95.0154 58.2478C95.454 57.8103 95.7024 57.2035 95.7024 56.585Z" fill="#8E76EC"/>
<path d="M63.4972 90.2596C63.1173 90.1248 62.731 89.9851 62.3438 89.8418V82.1326C63.222 82.4699 63.7859 82.8695 63.8209 82.8946C64.8521 83.6673 66.3127 83.461 67.0909 82.4301C67.8725 81.3948 67.67 79.9197 66.638 79.1353C66.5269 79.0508 64.8453 77.7982 62.3438 77.2318V75.6946C62.3438 74.3956 61.2943 73.3427 60.0001 73.3427C58.7059 73.3427 57.6563 74.3956 57.6563 75.6946V77.2182C57.4374 77.2685 57.2171 77.324 56.9944 77.3911C54.1613 78.2453 52.0447 80.6716 51.4705 83.723C50.9433 86.5235 51.8473 89.2322 53.8292 90.7923C54.8105 91.5646 56.0187 92.2705 57.6563 93.0097V103.289C56.4359 103.152 55.572 102.786 54.1787 101.872C53.0956 101.16 51.643 101.465 50.9342 102.552C50.2257 103.639 50.529 105.097 51.6125 105.808C53.9748 107.359 55.6168 107.864 57.6563 108.012V109.563C57.6563 110.862 58.7059 111.915 60.0001 111.915C61.2943 111.915 62.3438 110.862 62.3438 109.563V107.733C66.2546 106.683 68.7605 103.309 69.3184 99.9804C70.0538 95.5905 67.7687 91.7747 63.4972 90.2596ZM56.7223 87.0912C56.1319 86.6267 55.8786 85.6471 56.0764 84.5958C56.2353 83.7515 56.7308 82.7618 57.6563 82.2015V87.7279C57.3137 87.5209 56.9987 87.3088 56.7223 87.0912ZM64.6958 99.2005C64.4766 100.508 63.6781 101.881 62.3438 102.677V94.8579C64.9215 95.9894 64.8554 98.2477 64.6958 99.2005Z" fill="#8E76EC"/>
<path d="M45 31.7131H75V42.0617H45V31.7131Z" fill="#8E76EC"/>
</g>
<defs>
<clipPath id="clip0">
<rect width="120" height="120.42" fill="white" transform="translate(0 0.902466)"/>
</clipPath>
</defs>
</svg>
