<svg width="180" height="60" viewBox="0 0 180 60" fill="none" xmlns="http://www.w3.org/2000/svg">
<g clip-path="url(#clip0)">
<path d="M52.1347 23.9067V29.5867H59.7996V32.52H52.1347V39.6667H49.1867V21H60.7747V23.9067H52.1347ZM63.3537 19.88H66.1883V39.6667H63.3537V19.88ZM75.3513 39.8533C74.1267 39.8533 73.0229 39.5423 72.0405 38.92C71.0577 38.2977 70.2867 37.4357 69.7274 36.3333C69.1831 35.2133 68.911 33.951 68.911 32.5467C68.911 31.1422 69.1831 29.8889 69.7274 28.7867C70.2867 27.6844 71.0577 26.8222 72.0405 26.2C73.0229 25.5778 74.1267 25.2667 75.3513 25.2667C76.5909 25.2667 77.7021 25.5778 78.6849 26.2C79.6673 26.8222 80.431 27.6844 80.9752 28.7867C81.5345 29.8889 81.8143 31.1422 81.8143 32.5467C81.8143 33.951 81.5345 35.2133 80.9752 36.3333C80.431 37.4357 79.6673 38.2977 78.6849 38.92C77.7021 39.5423 76.5909 39.8533 75.3513 39.8533ZM75.3513 37C76.3945 37 77.2562 36.591 77.9365 35.7733C78.6168 34.9557 78.957 33.88 78.957 32.5467C78.957 31.2133 78.6168 30.1378 77.9365 29.32C77.2562 28.5022 76.3945 28.0933 75.3513 28.0933C74.3082 28.0933 73.4464 28.5022 72.7661 29.32C72.1008 30.1378 71.7683 31.2133 71.7683 32.5467C71.7683 33.88 72.1008 34.9557 72.7661 35.7733C73.4464 36.591 74.3082 37 75.3513 37ZM103.083 25.4267L98.6152 39.6667H95.894L92.7645 29.8533L89.5897 39.6667H86.8685L82.4238 25.4267H85.0997L88.2971 35.9333L91.6307 25.4267H94.0118L97.2773 35.9867L100.565 25.4267H103.083Z" fill="#8E76EC"/>
<path d="M117.626 39.6667L117.604 27.2933L112.388 37.5333H111.073L105.857 27.4533V39.6667H103.045V21H105.471L111.776 33.3733L117.967 21H120.393L120.416 39.6667H117.626ZM129.874 39.8533C128.649 39.8533 127.546 39.5423 126.563 38.92C125.58 38.2977 124.809 37.4357 124.25 36.3333C123.706 35.2133 123.433 33.951 123.433 32.5467C123.433 31.1422 123.706 29.8889 124.25 28.7867C124.809 27.6844 125.58 26.8222 126.563 26.2C127.546 25.5778 128.649 25.2667 129.874 25.2667C131.114 25.2667 132.225 25.5778 133.207 26.2C134.19 26.8222 134.953 27.6844 135.498 28.7867C136.057 29.8889 136.337 31.1422 136.337 32.5467C136.337 33.951 136.057 35.2133 135.498 36.3333C134.953 37.4357 134.19 38.2977 133.207 38.92C132.225 39.5423 131.114 39.8533 129.874 39.8533ZM129.874 37C130.917 37 131.779 36.591 132.459 35.7733C133.139 34.9557 133.479 33.88 133.479 32.5467C133.479 31.2133 133.139 30.1378 132.459 29.32C131.779 28.5022 130.917 28.0933 129.874 28.0933C128.831 28.0933 127.969 28.5022 127.289 29.32C126.624 30.1378 126.291 31.2133 126.291 32.5467C126.291 33.88 126.624 34.9557 127.289 35.7733C127.969 36.591 128.831 37 129.874 37ZM145.919 25.2667C147.445 25.2667 148.67 25.7911 149.592 26.84C150.514 27.8889 150.976 29.4444 150.976 31.5067V39.6667H148.141V31.9333C148.141 30.6889 147.892 29.7556 147.393 29.1333C146.894 28.4933 146.183 28.1733 145.261 28.1733C144.218 28.1733 143.394 28.5467 142.789 29.2933C142.184 30.0222 141.882 31.08 141.882 32.4667V39.6667H139.047V25.4267H141.746V27.2667C142.215 26.6089 142.804 26.1111 143.515 25.7733C144.225 25.4356 145.027 25.2667 145.919 25.2667ZM166.066 32.6267C166.066 32.8578 166.051 33.1867 166.021 33.6133H156.519C156.685 34.6623 157.116 35.4977 157.812 36.12C158.522 36.7243 159.399 37.0267 160.442 37.0267C161.773 37.0267 162.869 36.511 163.73 35.48L165.25 37.5333C164.706 38.2977 164.018 38.8757 163.186 39.2667C162.355 39.6577 161.417 39.8533 160.374 39.8533C159.044 39.8533 157.872 39.5423 156.859 38.92C155.846 38.2977 155.06 37.4357 154.501 36.3333C153.957 35.2133 153.684 33.951 153.684 32.5467C153.684 31.16 153.949 29.9156 154.478 28.8133C155.022 27.6933 155.771 26.8222 156.723 26.2C157.676 25.5778 158.749 25.2667 159.943 25.2667C161.123 25.2667 162.173 25.5778 163.095 26.2C164.033 26.8044 164.759 27.6667 165.272 28.7867C165.802 29.8889 166.066 31.1689 166.066 32.6267ZM159.943 27.9333C159.036 27.9333 158.265 28.2533 157.63 28.8933C157.01 29.5156 156.632 30.3511 156.496 31.4H163.368C163.247 30.3689 162.876 29.5333 162.256 28.8933C161.636 28.2533 160.865 27.9333 159.943 27.9333ZM179.906 25.4267L174.237 40.8133C173.708 42.36 173.065 43.4443 172.309 44.0667C171.553 44.7067 170.639 45.0267 169.565 45.0267C168.961 45.0267 168.363 44.911 167.774 44.68C167.184 44.449 166.701 44.129 166.322 43.72L167.456 41.2667C167.728 41.569 168.046 41.809 168.409 41.9867C168.787 42.1643 169.165 42.2533 169.543 42.2533C170.041 42.2533 170.45 42.1023 170.767 41.8C171.1 41.4977 171.402 40.991 171.674 40.28L171.878 39.72L166.595 25.4267H169.543L173.352 35.96L177.185 25.4267H179.906Z" fill="#FCA138"/>
<path d="M38.6724 30.0094V30.1264C38.6633 35.8013 36.0124 41.01 31.7536 43.7197V43.9397H36.5733L36.7165 43.8227C39.8009 40.372 41.7222 35.5117 41.7222 30.1266L41.5563 30.0094H38.6724Z" fill="#FCA138"/>
<path d="M13.23 36.139L13.4077 36.175L13.3389 35.979C12.6832 34.1094 12.3508 32.1305 12.3508 30.0976C12.3508 24.4608 14.9679 19.2633 19.1809 16.5333V16.3135H14.5497L14.3069 16.4307C11.2225 19.8811 9.3013 24.7414 9.3013 30.1266C9.3013 32.2663 9.60495 34.323 10.164 36.2417C10.7269 36.0887 11.3119 36.0054 11.9137 36.0054C12.3467 36.0054 12.7896 36.0504 13.23 36.139Z" fill="#9980FB"/>
<path d="M50.7617 45.9176L44.4968 41.664C44.1476 41.427 43.7111 41.7233 43.7111 42.1976V43.8223H31.5847C29.7663 44.9403 27.7004 45.574 25.5118 45.574C23.5064 45.574 21.5793 45.0543 19.7841 44.0296L19.622 43.937L19.6415 44.1476C19.673 44.487 19.689 44.8233 19.689 45.1486C19.689 46.026 19.5812 46.8736 19.3842 47.6773C21.2748 48.5806 23.3433 49.0796 25.5118 49.0796H43.7111V50.7046C43.7111 51.1786 44.1476 51.4753 44.4968 51.238L50.7617 46.9846C51.1109 46.7473 51.1109 46.1546 50.7617 45.9176Z" fill="#8E76EC"/>
<path d="M11.0363 30.1266C11.0363 24.7414 12.9575 19.8811 16.0419 16.4307H14.3069C11.2225 19.8811 9.3013 24.7414 9.3013 30.1266C9.3013 32.2663 9.60495 34.323 10.164 36.2417C10.7016 36.0957 11.2598 36.0147 11.8331 36.0077C11.3166 34.1564 11.0363 32.1798 11.0363 30.1266Z" fill="#8E76EC"/>
<path d="M25.5118 14.6213C27.6309 14.6213 29.6342 15.2141 31.4093 16.2648C31.3478 15.804 31.3146 15.3322 31.3146 14.8514C31.3146 14.0535 31.4025 13.2795 31.5666 12.5412C29.6957 11.6598 27.6525 11.1736 25.5118 11.1736H7.31262V9.5488C7.31262 9.07457 6.87603 8.7782 6.52683 9.01537L0.261895 13.2687C-0.0872982 13.5058 -0.0872982 14.0986 0.261895 14.3357L6.52683 18.5891C6.87603 18.8262 7.31262 18.5298 7.31262 18.0557V16.4309H19.3422C21.1836 15.2766 23.2837 14.6213 25.5118 14.6213Z" fill="#FCA138"/>
<path d="M38.6728 30.0977C38.6728 30.1074 38.6725 30.117 38.6725 30.1266H41.7223C41.7223 27.8976 41.392 25.759 40.7877 23.7725C40.2406 23.9162 39.6731 23.9946 39.0897 23.9946C38.5577 23.9946 38.0384 23.9301 37.5361 23.8094C38.2663 25.7318 38.6728 27.8598 38.6728 30.0977Z" fill="#FCA138"/>
<path d="M1.95584 12.3455C1.90163 12.3087 1.85678 12.2625 1.81941 12.2113L0.261895 13.2688C-0.0872983 13.5059 -0.0872983 14.0986 0.261895 14.3358L6.52683 18.5892C6.87603 18.8263 7.31263 18.5299 7.31263 18.0558V16.431H7.97304L1.95584 12.3455Z" fill="#F09730"/>
<path d="M31.5827 17.2289C29.7847 16.0534 27.7149 15.3829 25.5117 15.3829C18.6009 15.3829 12.9985 21.9709 12.9985 30.0976C12.9985 32.3576 13.4323 34.498 14.2064 36.4113C16.8015 37.355 18.8187 39.8573 19.4668 42.9833C21.2588 44.1483 23.3192 44.8123 25.5117 44.8123C32.4226 44.8123 38.025 38.2243 38.025 30.0976C38.025 27.7494 37.5564 25.5301 36.7245 23.5606C34.2235 22.619 32.2701 20.2267 31.5827 17.2289Z" fill="#FEF1DA"/>
<path d="M15.2706 36.9023C14.3006 34.892 13.746 32.5695 13.746 30.0976C13.746 22.4686 19.0241 16.2618 25.5118 16.2618C27.8995 16.2618 30.1229 17.1034 31.9802 18.5464C31.6936 17.787 31.4926 16.9741 31.3914 16.1236C29.6186 15.0877 27.6221 14.504 25.5118 14.504C18.1999 14.504 12.2511 21.4993 12.2511 30.0976C12.2511 32.2435 12.6218 34.2896 13.2915 36.152C13.9873 36.299 14.6519 36.5526 15.2706 36.9023Z" fill="#FBAE55"/>
<path d="M35.6241 23.0326C36.6735 25.1019 37.2776 27.5182 37.2776 30.0976C37.2776 37.7266 31.9995 43.9333 25.5118 43.9333C23.1543 43.9333 20.957 43.1133 19.1142 41.7036C19.3732 42.4496 19.5503 43.244 19.6333 44.0723C21.406 45.1076 23.4019 45.691 25.5117 45.691C32.8235 45.691 38.7723 38.6956 38.7723 30.0975C38.7723 27.8715 38.3726 25.7535 37.6549 23.8358C36.9388 23.6781 36.2571 23.4049 35.6241 23.0326Z" fill="#FBAE55"/>
<path d="M25.5117 40.416C30.3578 40.416 34.2863 35.7964 34.2863 30.0977C34.2863 24.3991 30.3578 19.7794 25.5117 19.7794C20.6656 19.7794 16.7371 24.3991 16.7371 30.0977C16.7371 35.7964 20.6656 40.416 25.5117 40.416Z" fill="#26BF87"/>
<path d="M20.1794 30.0977C20.1794 25.0919 23.2111 20.9199 27.2328 19.9791C26.6761 19.8489 26.1009 19.7794 25.5117 19.7794C20.6657 19.7794 16.7371 24.3991 16.7371 30.0977C16.7371 35.7964 20.6657 40.416 25.5117 40.416C26.1009 40.416 26.6761 40.3464 27.2328 40.2164C23.211 39.2754 20.1794 35.1034 20.1794 30.0977Z" fill="#2AB582"/>
<path d="M25.5117 41.2947C20.2613 41.2947 15.9898 36.2717 15.9898 30.0977C15.9898 23.9234 20.2613 18.9004 25.5117 18.9004C30.7624 18.9004 35.0339 23.9234 35.0339 30.0977C35.0339 36.2717 30.7624 41.2947 25.5117 41.2947ZM25.5117 20.6582C21.0856 20.6582 17.4846 24.8927 17.4846 30.0977C17.4846 35.3024 21.0856 39.5371 25.5117 39.5371C29.9381 39.5371 33.5389 35.3024 33.5389 30.0977C33.5389 24.8927 29.9381 20.6582 25.5117 20.6582Z" fill="#4CD3A2"/>
<path d="M26.5201 29.2187H24.5034C23.9094 29.2187 23.4262 28.6504 23.4262 27.9519C23.4262 27.2533 23.9094 26.6851 24.5034 26.6851H28.0567C28.4695 26.6851 28.8042 26.2916 28.8042 25.8062C28.8042 25.3208 28.4695 24.9273 28.0567 24.9273H26.2592V23.604C26.2592 23.1186 25.9247 22.7251 25.5118 22.7251C25.099 22.7251 24.7644 23.1186 24.7644 23.604V24.9273H24.5034C23.0852 24.9273 21.9314 26.2841 21.9314 27.9519C21.9314 29.6197 23.0852 30.9765 24.5034 30.9765H26.5201C27.1141 30.9765 27.5974 31.5447 27.5974 32.2433C27.5974 32.9419 27.1141 33.51 26.5201 33.51H22.9669C22.5541 33.51 22.2195 33.9037 22.2195 34.389C22.2195 34.8743 22.5541 35.268 22.9669 35.268H24.7644V36.591C24.7644 37.0763 25.099 37.47 25.5118 37.47C25.9247 37.47 26.2592 37.0763 26.2592 36.591V35.268H26.5201C27.9383 35.268 29.0922 33.911 29.0922 32.2433C29.0922 30.5755 27.9384 29.2187 26.5201 29.2187Z" fill="#F9F9F9"/>
<path d="M39.0898 23.2329C43.0262 23.2329 46.2175 19.4804 46.2175 14.8514C46.2175 10.2225 43.0262 6.46997 39.0898 6.46997C35.1533 6.46997 31.9623 10.2225 31.9623 14.8514C31.9623 19.4804 35.1533 23.2329 39.0898 23.2329Z" fill="#26BF87"/>
<path d="M35.3826 14.8514C35.3826 10.9159 37.6897 7.61547 40.7999 6.71454C40.252 6.55574 39.6797 6.46997 39.0898 6.46997C35.1536 6.46997 31.9623 10.2225 31.9623 14.8514C31.9623 19.4805 35.1536 23.2329 39.0898 23.2329C39.6797 23.2329 40.252 23.1471 40.7999 22.9884C37.6897 22.0874 35.3826 18.7871 35.3826 14.8514Z" fill="#2AB582"/>
<path d="M39.0898 24.1118C34.7477 24.1118 31.2151 19.9577 31.2151 14.8514C31.2151 9.74523 34.7477 5.59106 39.0898 5.59106C43.4322 5.59106 46.965 9.74523 46.965 14.8514C46.965 19.9577 43.4322 24.1118 39.0898 24.1118ZM39.0898 7.34886C35.572 7.34886 32.7099 10.7145 32.7099 14.8514C32.7099 18.9884 35.572 22.354 39.0898 22.354C42.6079 22.354 45.47 18.9884 45.47 14.8514C45.47 10.7145 42.6079 7.34886 39.0898 7.34886Z" fill="#4CD3A2"/>
<path d="M39.9089 13.9726H38.2707C37.8657 13.9726 37.536 13.5851 37.536 13.1086C37.536 12.6321 37.8657 12.2445 38.2707 12.2445H41.1572C41.57 12.2445 41.9045 11.851 41.9045 11.3656C41.9045 10.8802 41.57 10.4867 41.1572 10.4867H39.8372V9.5769C39.8372 9.0915 39.5027 8.698 39.0897 8.698C38.6769 8.698 38.3425 9.0915 38.3425 9.5769V10.4867H38.2707C37.0414 10.4867 36.041 11.6629 36.041 13.1086C36.041 14.5542 37.0414 15.7304 38.2707 15.7304H39.9089C40.3139 15.7304 40.6436 16.1179 40.6436 16.5944C40.6436 17.0709 40.3139 17.4585 39.9089 17.4585H37.0227C36.6096 17.4585 36.2752 17.852 36.2752 18.3374C36.2752 18.8227 36.6096 19.2163 37.0227 19.2163H38.3422V20.1261C38.3422 20.6115 38.6769 21.005 39.0897 21.005C39.5027 21.005 39.8372 20.6115 39.8372 20.1261V19.2163H39.9089C41.1383 19.2163 42.1383 18.0401 42.1383 16.5944C42.1383 15.1488 41.1383 13.9726 39.9089 13.9726Z" fill="#F9F9F9"/>
<path d="M11.9138 53.53C15.8502 53.53 19.0413 49.7776 19.0413 45.1486C19.0413 40.5196 15.8502 36.767 11.9138 36.767C7.97732 36.767 4.78619 40.5196 4.78619 45.1486C4.78619 49.7776 7.97732 53.53 11.9138 53.53Z" fill="#26BF87"/>
<path d="M8.26445 45.1486C8.26445 41.2253 10.5572 37.9326 13.6529 37.0196C13.0962 36.8553 12.5139 36.767 11.9138 36.767C7.97736 36.767 4.78629 40.5196 4.78629 45.1486C4.78629 49.7776 7.97736 53.53 11.9138 53.53C12.5139 53.53 13.0963 53.442 13.6529 53.2776C10.5572 52.3646 8.26445 49.072 8.26445 45.1486Z" fill="#2AB582"/>
<path d="M11.9137 54.4091C7.57144 54.4091 4.03876 50.2548 4.03876 45.1488C4.03876 40.0424 7.57144 35.8884 11.9137 35.8884C16.256 35.8884 19.7887 40.0424 19.7887 45.1488C19.7887 50.2548 16.256 54.4091 11.9137 54.4091ZM11.9137 37.6461C8.3957 37.6461 5.53358 41.0118 5.53358 45.1488C5.53358 49.2858 8.3957 52.6514 11.9137 52.6514C15.4318 52.6514 18.2939 49.2858 18.2939 45.1488C18.2939 41.0118 15.4318 37.6461 11.9137 37.6461Z" fill="#4CD3A2"/>
<path d="M12.7328 44.2697H11.0946C10.6895 44.2697 10.3599 43.882 10.3599 43.4057C10.3599 42.9293 10.6895 42.5417 11.0946 42.5417H13.981C14.3937 42.5417 14.7284 42.148 14.7284 41.6627C14.7284 41.1773 14.3937 40.7837 13.981 40.7837H12.6611V39.874C12.6611 39.3887 12.3265 38.995 11.9137 38.995C11.501 38.995 11.1663 39.3887 11.1663 39.874V40.7837H11.0946C9.86531 40.7837 8.86505 41.96 8.86505 43.4057C8.86505 44.8513 9.8652 46.0273 11.0946 46.0273H12.7328C13.1379 46.0273 13.4676 46.415 13.4676 46.8917C13.4676 47.368 13.138 47.7557 12.7328 47.7557H9.84658C9.43379 47.7557 9.09914 48.149 9.09914 48.6343C9.09914 49.12 9.43379 49.5133 9.84658 49.5133H11.1663V50.4233C11.1663 50.9087 11.501 51.302 11.9137 51.302C12.3265 51.302 12.6611 50.9087 12.6611 50.4233V49.5133H12.7328C13.9621 49.5133 14.9624 48.337 14.9624 46.8917C14.9624 45.446 13.9621 44.2697 12.7328 44.2697Z" fill="#F9F9F9"/>
<path d="M22.124 8.06203H11.447C11.0342 8.06203 10.6996 7.6685 10.6996 7.1831C10.6996 6.69773 11.0342 6.3042 11.447 6.3042H22.124C22.5368 6.3042 22.8714 6.69773 22.8714 7.1831C22.8714 7.6685 22.5368 8.06203 22.124 8.06203Z" fill="#FCA138"/>
<path d="M38.3447 53.6957H27.6679C27.255 53.6957 26.9204 53.3023 26.9204 52.817C26.9204 52.3317 27.255 51.938 27.6679 51.938H38.3449C38.7577 51.938 39.0922 52.3317 39.0922 52.817C39.0922 53.3023 38.7577 53.6957 38.3447 53.6957Z" fill="#8E76EC"/>
</g>
<defs>
<clipPath id="clip0">
<rect width="180" height="60" fill="white"/>
</clipPath>
</defs>
</svg>
