<svg width="40" height="40" viewBox="0 0 40 40" fill="none" xmlns="http://www.w3.org/2000/svg">
<rect x="0.5" y="0.5" width="39" height="39" rx="19.5" stroke="#363535"/>
<path d="M20 35C28.2843 35 35 28.2843 35 20C35 11.7157 28.2843 5 20 5C11.7157 5 5 11.7157 5 20C5 28.2843 11.7157 35 20 35Z" fill="#585757"/>
<path d="M24.9194 30.0806C16.6351 30.0806 9.91936 23.3649 9.91936 15.0806C9.91936 12.199 10.7336 9.50823 12.1421 7.22278C7.85738 9.86354 5 14.5973 5 20C5 28.2843 11.7157 35 20 35C25.4026 35 30.1365 32.1426 32.7772 27.8578C30.4917 29.2664 27.8011 30.0806 24.9194 30.0806Z" fill="#363535"/>
<path d="M16.8547 28.7097C17.5228 28.7097 18.0644 28.1682 18.0644 27.5001C18.0644 26.832 17.5228 26.2904 16.8547 26.2904C16.1866 26.2904 15.645 26.832 15.645 27.5001C15.645 28.1682 16.1866 28.7097 16.8547 28.7097Z" fill="#585757"/>
<path d="M22.9034 14.1936C23.4379 14.1936 23.8711 13.7604 23.8711 13.2259C23.8711 12.6914 23.4379 12.2582 22.9034 12.2582C22.3689 12.2582 21.9357 12.6914 21.9357 13.2259C21.9357 13.7604 22.3689 14.1936 22.9034 14.1936Z" fill="#E5E5E5"/>
<path d="M13.9514 15.6453C15.1539 15.6453 16.1287 14.6705 16.1287 13.468C16.1287 12.2655 15.1539 11.2906 13.9514 11.2906C12.7489 11.2906 11.774 12.2655 11.774 13.468C11.774 14.6705 12.7489 15.6453 13.9514 15.6453Z" fill="#E5E5E5"/>
<path d="M26.7741 26.7741C27.843 26.7741 28.7094 25.9077 28.7094 24.8388C28.7094 23.7699 27.843 22.9034 26.7741 22.9034C25.7052 22.9034 24.8387 23.7699 24.8387 24.8388C24.8387 25.9077 25.7052 26.7741 26.7741 26.7741Z" fill="#E5E5E5"/>
<path d="M18.0646 20H17.5807V19.5161C17.5807 19.2486 17.3643 19.0322 17.0969 19.0322C16.8294 19.0322 16.613 19.2487 16.613 19.5161V20H16.1291C15.8617 20 15.6453 20.2164 15.6453 20.4838C15.6453 20.7512 15.8617 20.9677 16.1291 20.9677H16.613V21.4515C16.613 21.719 16.8294 21.9354 17.0969 21.9354C17.3643 21.9354 17.5807 21.719 17.5807 21.4515V20.9677H18.0646C18.3321 20.9677 18.5485 20.7512 18.5485 20.4838C18.5485 20.2164 18.332 20 18.0646 20Z" fill="#E5E5E5"/>
<path d="M30.3618 18.0645L30.5035 17.9228C30.6925 17.7337 30.6925 17.4275 30.5035 17.2386C30.3145 17.0495 30.0083 17.0495 29.8193 17.2386L29.6775 17.3803L29.5358 17.2386C29.3468 17.0495 29.0406 17.0495 28.8516 17.2386C28.6626 17.4276 28.6626 17.7338 28.8516 17.9228L28.9933 18.0645L28.8516 18.2062C28.6626 18.3953 28.6626 18.7015 28.8516 18.8904C28.9461 18.985 29.0699 19.0322 29.1937 19.0322C29.3175 19.0322 29.4414 18.985 29.5359 18.8904L29.6776 18.7487L29.8193 18.8904C29.9139 18.985 30.0377 19.0322 30.1615 19.0322C30.2853 19.0322 30.4091 18.985 30.5036 18.8904C30.6926 18.7014 30.6926 18.3952 30.5036 18.2062L30.3618 18.0645Z" fill="#E5E5E5"/>
<path d="M10.3227 22.4191C10.8572 22.4191 11.2904 21.9858 11.2904 21.4514C11.2904 20.9169 10.8572 20.4836 10.3227 20.4836C9.78825 20.4836 9.35498 20.9169 9.35498 21.4514C9.35498 21.9858 9.78825 22.4191 10.3227 22.4191Z" fill="#585757"/>
</svg>
