<svg width="40" height="40" viewBox="0 0 40 40" fill="none" xmlns="http://www.w3.org/2000/svg">
<rect x="0.5" y="0.5" width="39" height="39" rx="19.5" stroke="#F8A805"/>
<path d="M35 20L31.841 22.7041L33.517 26.5104L29.4947 27.5704L29.3532 31.7274L25.2689 30.9436L23.3374 34.6271L20 32.1429L16.6626 34.6271L14.7311 30.9436L10.6468 31.7274L10.5052 27.5704L6.483 26.5103L8.159 22.7041L5 20L8.159 17.2959L6.483 13.4896L10.5053 12.4296L10.6468 8.27257L14.7311 9.05635L16.6626 5.37292L20 7.85714L23.3374 5.37292L25.2689 9.05635L29.3532 8.27257L29.4948 12.4296L33.517 13.4897L31.841 17.2959L35 20Z" fill="#F5C525"/>
<path d="M20 30C25.5228 30 30 25.5228 30 20C30 14.4772 25.5228 10 20 10C14.4772 10 10 14.4772 10 20C10 25.5228 14.4772 30 20 30Z" fill="#F8A805"/>
</svg>
